{"title":"Enrique Bunbury Ft. Leon Larregui - La Chispa Adecuada [1080p]","uid":12673677,"size":73574889,"categoryP":"video","categoryS":"music_videos","magnet":"?xt=urn:btih:6266d83a10730dbfa9dfa01f23bec7b2d31431db&amp;dn=Enrique+Bunbury+Ft.+Leon+Larregui+-+La+Chispa+Adecuada+%5B1080p%5D&amp;tr=udp%3A%2F%2Ftracker.leechers-paradise.org%3A6969&amp;tr=udp%3A%2F%2Fzer0day.ch%3A1337&amp;tr=udp%3A%2F%2Fopen.demonii.com%3A1337&amp;tr=udp%3A%2F%2Ftracker.coppersurfer.tk%3A6969&amp;tr=udp%3A%2F%2Fexodus.desync.com%3A6969","seeders":1,"leechers":0,"uploader":"MusicVideos-HQ","files":1,"time":1446485316,"description":"Capturas: http://i.imgur.com/JVt1zRF.jpg\r\n\r\n\r\nGeneral\r\n\r\nFormat                         : MPEG-4\r\nFormat profile                 : Base Media\r\nCodec ID                       : isom\r\nFile size                      : 70.2 MiB\r\nDuration                       : 4mn 48s\r\nOverall bit rate               : 2 038 Kbps\r\nWriting application            : Lavf55.33.100\r\n\r\nVideo\r\nID                             : 1\r\nFormat                         : AVC\r\nFormat/Info                    : Advanced Video Codec\r\nFormat profile                 :   \r\nFormat settings, CABAC         : Yes\r\nFormat settings, ReFrames      : 3 frames\r\nCodec ID                       : avc1\r\nCodec ID/Info                  : Advanced Video Coding\r\nDuration                       : 4mn 48s\r\nBit rate                       : 1 906 Kbps\r\nWidth                          : 1 920 pixels\r\nHeight                         : 1 080 pixels\r\nDisplay aspect ratio           : 16:9\r\nFrame rate mode                : Variable\r\nFrame rate                     : 23.976 fps\r\nMinimum frame rate             : 23.974 fps\r\nMaximum frame rate             : 90 000.000 fps\r\nColor space                    : YUV\r\nChroma subsampling             : 4:2:0\r\nBit depth                      : 8 bits\r\nScan type                      : Progressive\r\nBits/(Pixel*Frame)             : 0.038\r\nStream size                    : 65.6 MiB (94%)\r\n\r\nAudio\r\nID                             : 2\r\nFormat                         : AAC\r\nFormat/Info                    : Advanced Audio Codec\r\nFormat profile                 : LC\r\nCodec ID                       : 40\r\nDuration                       : 4mn 48s\r\nBit rate mode                  : Constant\r\nBit rate                       : 126 Kbps\r\nChannel(s)                     : 2 channels\r\nChannel positions              : Front: L R\r\nSampling rate                  : 44.1 KHz\r\nCompression mode               : Lossy\r\nStream size                    : 4.32 MiB (6%)","torrent":{"xt":"urn:btih:6266d83a10730dbfa9dfa01f23bec7b2d31431db","amp;dn":"Enrique+Bunbury+Ft.+Leon+Larregui+-+La+Chispa+Adecuada+%5B1080p%5D","amp;tr":["udp%3A%2F%2Ftracker.leechers-paradise.org%3A6969","udp%3A%2F%2Fzer0day.ch%3A1337","udp%3A%2F%2Fopen.demonii.com%3A1337","udp%3A%2F%2Ftracker.coppersurfer.tk%3A6969","udp%3A%2F%2Fexodus.desync.com%3A6969"],"infoHash":"6266d83a10730dbfa9dfa01f23bec7b2d31431db","infoHashBuffer":{"type":"Buffer","data":[98,102,216,58,16,115,13,191,169,223,160,31,35,190,199,178,211,20,49,219]},"announce":[],"urlList":[]}}